# xmcd
#
# Track frame offsets:
#	150
#	11487
#	23387
#	34602
#	48825
#	62387
#	79350
#	94312
#	113862
#	131200
#	147025
#	159482
#	176725
#	188200
#	199037
#	211975
#	226712
#	243227
#	257312
#	270775
#
# Disc length: 3900 seconds
#
# Revision: 1
# Processed by: cddbd v1.4b42PL1 Copyright (c) Steve Scherf et al.
# Submitted via: audiograbber 1.80
#
DISCID=f80f3a14
DTITLE=Various Artist - Kings of Country - Disc 3
DYEAR=1900
DGENRE=
TTITLE0=Twitty, Conway - Hello Darlin'
TTITLE1=Twitty, Conway - Linda on My Mind
TTITLE2=Twitty, Conway - It's Only Make Believe
TTITLE3=Twitty, Conway - You've Never Been This Far Before
TTITLE4=Twitty, Conway - Games That Daddies Play
TTITLE5=Rogers, Kenny - You Decorated My Life
TTITLE6=Rogers, Kenny - Crazy
TTITLE7=Rogers, Kenny - She Believes in Me
TTITLE8=Rogers, Kenny - Lady
TTITLE9=Rogers, Kenny - Through the Years
TTITLE10=Rich, Charlie - Behind Closed Doors
TTITLE11=Rich, Charlie - My Elusive Dreams
TTITLE12=Rich, Charlie - Rolin' with the Flow
TTITLE13=Rich, Charlie - There Won't Be Anymore
TTITLE14=Rich, Charlie - The Most Beautiful Girl
TTITLE15=Greenwood, Lee - God Bless the U.S.A.
TTITLE16=Greenwood, Lee - Somebody's Gonna Love You
TTITLE17=Greenwood, Lee - Dixie Road
TTITLE18=Greenwood, Lee - Hearts Aren't Made to Break
TTITLE19=Greenwood, Lee - How Great Thou Art
EXTD=Reader's Digest Music\n
EXTT0=
EXTT1=
EXTT2=
EXTT3=
EXTT4=
EXTT5=
EXTT6=
EXTT7=
EXTT8=
EXTT9=
EXTT10=
EXTT11=
EXTT12=
EXTT13=
EXTT14=
EXTT15=
EXTT16=
EXTT17=
EXTT18=
EXTT19=
PLAYORDER=
